<?xml version="1.0" standalone="no"?>
<!DOCTYPE svg PUBLIC "-//W3C//DTD SVG 20010904//EN"
 "http://www.w3.org/TR/2001/REC-SVG-20010904/DTD/svg10.dtd">
<svg version="1.0" xmlns="http://www.w3.org/2000/svg"
 width="512.000000pt" height="512.000000pt" viewBox="0 0 512.000000 512.000000"
 preserveAspectRatio="xMidYMid meet">

<g transform="translate(0.000000,512.000000) scale(0.100000,-0.100000)"
fill="#000000" stroke="none">
<path d="M1064 4155 c-166 -30 -303 -85 -445 -181 -314 -210 -499 -560 -499
-944 0 -454 274 -870 688 -1045 59 -25 92 -45 92 -55 0 -8 11 -163 25 -345 24
-330 24 -330 50 -352 32 -28 55 -29 86 -4 13 10 114 162 224 338 l199 320 206
6 c308 9 476 55 671 183 l73 48 30 -39 c58 -74 171 -187 236 -235 224 -165
453 -230 816 -230 l122 0 197 -317 c109 -175 205 -326 213 -335 21 -25 84 -24
107 2 16 18 22 64 41 328 12 169 24 324 26 345 3 37 5 39 73 66 326 131 574
414 672 767 26 93 28 111 27 289 0 173 -2 199 -26 287 -108 397 -419 708 -815
815 -96 26 -104 27 -483 31 -429 4 -481 0 -648 -53 -97 -31 -247 -106 -311
-156 l-24 -19 -42 57 c-53 74 -186 199 -267 253 -130 85 -289 148 -442 175
-115 20 -762 20 -872 0z m755 -136 c239 -22 441 -112 604 -268 61 -58 147
-163 147 -179 0 -5 -10 -17 -22 -28 -41 -37 -135 -171 -180 -260 -79 -154
-128 -351 -128 -519 0 -142 48 -363 102 -469 11 -21 16 -41 11 -45 -5 -3 -30
-21 -57 -39 -72 -51 -222 -119 -316 -143 -72 -19 -121 -23 -320 -26 -129 -3
-243 -9 -252 -14 -10 -5 -86 -120 -169 -254 -84 -135 -155 -243 -157 -240 -3
3 -13 116 -23 251 -20 278 -18 272 -103 300 -321 107 -570 369 -658 694 -20
73 -23 109 -23 255 0 187 13 254 77 400 140 320 464 553 813 584 135 12 524
12 654 0z m2251 -284 c387 -87 684 -387 765 -770 20 -95 23 -282 6 -375 -48
-259 -205 -500 -421 -647 -63 -43 -164 -92 -239 -118 -98 -33 -98 -31 -117
-305 -8 -129 -18 -241 -20 -249 -3 -8 -70 91 -150 220 -81 129 -155 244 -166
255 -18 21 -30 22 -256 27 -258 5 -323 16 -469 75 -152 62 -308 182 -410 315
l-45 58 39 45 c159 189 252 390 284 613 26 188 -6 433 -79 594 l-31 67 57 41
c115 82 295 149 452 168 41 5 221 8 400 6 261 -2 340 -6 400 -20z m-1385 -396
c37 -120 48 -208 42 -354 -6 -139 -19 -203 -69 -329 -32 -80 -127 -236 -166
-270 -21 -18 -22 -18 -31 5 -110 292 -91 591 54 857 46 82 123 184 135 177 5
-3 21 -42 35 -86z"/>
<path d="M1403 3622 c-75 -27 -132 -70 -169 -127 -78 -122 -70 -248 15 -248
43 0 69 28 79 85 18 93 88 158 172 158 91 0 170 -81 170 -174 0 -69 -21 -108
-105 -199 -41 -44 -88 -106 -103 -136 -24 -50 -27 -69 -30 -183 -4 -117 -2
-128 17 -147 26 -26 75 -27 99 -3 15 15 20 41 25 125 7 132 19 159 114 258
101 105 128 166 128 284 0 74 -4 98 -23 137 -71 144 -246 221 -389 170z"/>
<path d="M1560 2513 c-35 -13 -50 -37 -50 -78 0 -51 23 -75 72 -75 46 0 68 25
68 78 0 32 -6 45 -26 61 -27 21 -38 24 -64 14z"/>
<path d="M3070 3140 c-26 -26 -26 -81 -2 -103 17 -15 70 -17 560 -17 529 0
542 0 562 20 11 11 20 33 20 50 0 17 -9 39 -20 50 -20 20 -33 20 -560 20 -527
0 -540 0 -560 -20z"/>
<path d="M3065 2815 c-14 -13 -25 -36 -25 -50 0 -14 11 -37 25 -50 l24 -25
520 0 c367 0 527 3 545 11 46 22 51 93 8 125 -13 11 -126 13 -545 14 l-528 0
-24 -25z"/>
<path d="M3051 2494 c-24 -31 -26 -43 -9 -79 20 -43 53 -46 480 -43 394 3 398
3 419 25 30 30 30 80 0 105 -22 17 -50 18 -446 18 l-424 0 -20 -26z"/>
</g>
</svg>
