<svg id="svg" version="1.1" xmlns="http://www.w3.org/2000/svg" xmlns:xlink="http://www.w3.org/1999/xlink" width="400" height="400" viewBox="0, 0, 400,400"><g id="svgg"><path id="path0" d="M70.333 102.224 C 47.547 105.879,33.977 120.409,31.016 144.325 C 30.417 149.166,30.548 220.060,31.165 224.767 C 32.415 234.305,35.783 242.937,40.797 249.457 C 44.618 254.427,63.130 272.359,67.090 274.928 C 76.499 281.031,88.044 283.531,98.186 281.661 L 101.833 280.988 104.667 283.941 C 112.224 291.817,118.473 292.879,128.500 287.991 C 136.849 283.921,144.658 276.240,143.825 272.917 C 143.714 272.477,141.008 269.504,137.812 266.312 C 134.615 263.119,132.000 260.401,132.000 260.271 C 132.000 260.142,132.509 259.165,133.130 258.101 C 134.100 256.442,135.392 253.613,136.101 251.598 C 136.255 251.161,138.702 253.426,146.567 261.284 C 163.504 278.203,170.176 281.495,187.500 281.480 C 201.641 281.468,211.659 277.638,220.573 268.836 L 223.979 265.473 231.570 273.070 C 235.746 277.249,239.636 280.892,240.215 281.167 C 241.864 281.950,278.216 281.912,279.873 281.126 C 281.206 280.493,282.258 279.136,282.725 277.444 L 283.057 276.241 285.278 278.406 C 286.500 279.597,287.871 280.818,288.324 281.119 C 289.682 282.021,357.645 281.951,359.339 281.046 C 361.932 279.659,361.821 280.655,361.935 257.833 C 362.008 243.272,361.929 237.122,361.655 236.167 C 361.344 235.080,359.721 233.268,352.887 226.380 C 344.212 217.636,343.006 216.688,340.544 216.674 C 338.921 216.665,337.734 219.926,350.311 189.833 C 356.211 175.717,361.252 163.356,361.514 162.366 C 362.114 160.094,361.834 122.798,361.205 121.256 C 360.866 120.425,344.710 103.885,343.176 102.799 C 342.623 102.408,336.982 102.333,307.754 102.333 L 272.990 102.333 271.832 103.417 C 271.021 104.174,270.542 105.024,270.238 106.243 L 269.803 107.987 267.343 105.509 C 263.911 102.054,265.846 102.305,243.439 102.409 L 223.720 102.500 222.828 103.333 C 221.634 104.449,221.002 105.734,220.991 107.067 L 220.982 108.167 218.560 105.601 C 215.244 102.088,217.010 102.333,195.028 102.333 L 175.765 102.333 174.648 103.087 C 174.033 103.501,173.225 104.473,172.851 105.247 L 172.173 106.655 170.077 104.578 L 167.981 102.500 148.240 102.411 C 122.229 102.294,125.000 100.460,125.000 117.792 L 125.000 129.762 115.906 120.781 C 104.120 109.141,100.193 106.458,91.067 103.814 C 85.639 102.241,75.214 101.442,70.333 102.224 M84.228 104.183 C 106.310 107.462,119.978 123.593,121.690 148.396 C 122.443 159.313,121.922 221.170,121.036 226.000 C 119.619 233.722,117.164 239.966,113.770 244.477 L 112.012 246.814 113.089 247.926 C 114.116 248.985,116.968 250.970,123.417 255.112 C 125.039 256.154,126.333 257.216,126.333 257.506 C 126.333 260.610,118.672 267.441,111.081 271.105 L 107.500 272.833 102.833 272.833 C 96.433 272.833,92.441 270.634,88.622 265.005 C 87.319 263.084,87.591 263.128,82.655 264.037 C 58.885 268.416,38.283 252.899,33.260 226.833 C 32.409 222.421,31.904 155.022,32.659 146.667 C 35.292 117.499,56.461 100.060,84.228 104.183 M167.309 104.488 C 168.860 105.289,168.827 104.209,169.000 161.382 C 169.162 215.086,169.184 216.616,169.802 217.298 C 170.729 218.323,172.432 218.237,173.309 217.122 L 174.000 216.243 174.000 161.294 L 174.000 106.344 174.973 105.255 L 175.945 104.167 195.335 104.167 L 214.724 104.167 215.529 105.102 L 216.333 106.037 216.333 165.152 C 216.333 231.629,216.473 227.713,213.826 235.311 C 207.446 253.625,192.297 263.832,171.500 263.832 C 152.437 263.832,138.609 255.560,131.011 239.611 C 126.454 230.044,126.667 233.705,126.667 164.781 C 126.667 100.799,126.540 105.102,128.452 104.331 C 129.808 103.783,166.232 103.931,167.309 104.488 M263.453 104.459 C 265.460 105.298,265.348 100.328,265.254 184.444 L 265.167 262.055 264.078 263.027 L 262.989 264.000 244.187 264.000 L 225.384 264.000 224.369 263.145 C 222.606 261.662,222.671 264.669,222.669 183.384 C 222.667 100.162,222.551 105.309,224.434 104.399 C 225.638 103.817,262.052 103.873,263.453 104.459 M342.986 104.935 L 343.921 105.870 344.154 114.352 C 344.283 119.017,344.338 128.158,344.277 134.667 L 344.167 146.500 329.379 181.833 C 321.246 201.267,314.516 217.429,314.424 217.750 C 314.266 218.299,315.060 218.333,327.827 218.333 C 342.590 218.333,343.133 218.396,343.954 220.198 C 344.224 220.792,344.333 226.914,344.333 241.541 L 344.333 262.051 343.359 263.026 L 342.385 264.000 307.889 264.000 L 273.393 264.000 272.530 262.974 L 271.667 261.949 271.681 242.391 C 271.693 227.053,271.791 222.582,272.135 221.667 C 272.377 221.025,279.270 204.347,287.454 184.604 C 295.638 164.860,302.333 148.623,302.333 148.520 C 302.333 148.417,295.856 148.333,287.938 148.333 C 273.617 148.333,273.539 148.330,272.771 147.609 L 272.000 146.884 272.000 126.416 L 272.000 105.949 272.974 104.974 L 273.949 104.000 308.000 104.000 L 342.051 104.000 342.986 104.935 M75.707 149.909 C 74.959 150.657,74.678 151.311,74.513 152.693 C 74.047 156.597,74.467 217.102,74.967 218.077 C 75.812 219.723,77.631 219.680,78.504 217.993 C 79.179 216.687,79.251 152.005,78.578 150.703 C 77.732 149.064,76.807 148.808,75.707 149.909 M289.023 165.809 C 289.469 165.911,290.603 166.033,291.544 166.080 L 293.255 166.167 291.971 169.167 C 291.264 170.817,288.962 176.367,286.855 181.500 L 283.024 190.833 283.012 175.692 L 283.000 160.551 285.606 163.087 C 287.040 164.482,288.577 165.707,289.023 165.809 " stroke="none" fill="#94939b" fill-rule="evenodd"></path><path id="path1" d="M74.000 98.883 C 48.488 102.225,32.600 118.249,28.111 145.167 C 27.181 150.747,27.171 224.882,28.100 230.392 C 29.915 241.159,33.327 249.925,38.391 256.833 C 41.387 260.919,62.671 281.874,66.130 284.142 C 75.311 290.163,84.235 292.751,96.028 292.814 C 103.722 292.855,102.838 292.603,106.667 295.850 C 114.836 302.777,126.541 303.311,137.333 297.250 C 145.160 292.855,152.656 285.590,153.516 281.567 C 154.039 279.117,154.152 279.132,158.182 282.161 C 176.208 295.712,205.460 295.791,224.068 282.339 C 228.182 279.365,227.517 279.181,233.430 284.922 C 241.539 292.793,240.363 292.500,263.833 292.500 C 281.415 292.500,281.516 292.496,284.731 291.693 L 287.961 290.885 291.064 291.692 L 294.167 292.499 324.583 292.602 C 362.782 292.731,364.739 292.591,368.445 289.461 C 372.448 286.080,372.667 284.595,372.667 260.833 C 372.667 234.156,373.641 237.273,361.452 224.967 C 354.779 218.230,353.000 216.253,353.000 215.571 C 353.000 215.097,356.615 206.037,361.034 195.438 C 371.554 170.202,371.583 170.129,372.166 166.785 C 372.745 163.465,372.879 133.773,372.342 127.821 C 371.750 121.253,370.928 119.998,360.448 109.643 C 352.159 101.453,351.783 101.140,348.833 99.964 L 346.833 99.167 312.884 99.074 C 292.717 99.019,278.305 99.108,277.384 99.294 C 276.531 99.465,274.984 99.798,273.946 100.032 C 272.253 100.415,271.730 100.383,268.883 99.729 C 264.071 98.624,231.281 98.601,226.600 99.700 C 223.490 100.430,222.998 100.420,219.167 99.545 C 215.827 98.782,182.404 98.749,178.833 99.506 C 175.897 100.128,174.850 100.125,171.700 99.487 C 169.560 99.053,166.264 98.988,150.500 99.070 L 131.833 99.167 129.573 99.967 C 124.560 101.742,122.317 105.272,121.733 112.306 C 121.432 115.936,121.307 115.942,117.628 112.500 C 110.781 106.094,102.273 101.803,92.167 99.658 C 88.891 98.963,77.201 98.464,74.000 98.883 M85.177 102.491 C 97.168 104.436,102.675 107.713,115.906 120.781 L 125.000 129.762 125.000 117.792 C 125.000 100.460,122.229 102.294,148.240 102.411 L 167.981 102.500 170.077 104.578 L 172.173 106.655 172.851 105.247 C 173.225 104.473,174.033 103.501,174.648 103.087 L 175.765 102.333 195.028 102.333 C 217.010 102.333,215.244 102.088,218.560 105.601 L 220.982 108.167 220.991 107.067 C 221.002 105.734,221.634 104.449,222.828 103.333 L 223.720 102.500 243.439 102.409 C 265.846 102.305,263.911 102.054,267.343 105.509 L 269.803 107.987 270.238 106.243 C 270.542 105.024,271.021 104.174,271.832 103.417 L 272.990 102.333 307.754 102.333 C 336.982 102.333,342.623 102.408,343.176 102.799 C 344.710 103.885,360.866 120.425,361.205 121.256 C 361.834 122.798,362.114 160.094,361.514 162.366 C 361.252 163.356,356.211 175.717,350.311 189.833 C 337.734 219.926,338.921 216.665,340.544 216.674 C 343.006 216.688,344.212 217.636,352.887 226.380 C 359.721 233.268,361.344 235.080,361.655 236.167 C 361.929 237.122,362.008 243.272,361.935 257.833 C 361.821 280.655,361.932 279.659,359.339 281.046 C 357.645 281.951,289.682 282.021,288.324 281.119 C 287.871 280.818,286.500 279.597,285.278 278.406 L 283.057 276.241 282.725 277.444 C 282.258 279.136,281.206 280.493,279.873 281.126 C 278.216 281.912,241.864 281.950,240.215 281.167 C 239.636 280.892,235.746 277.249,231.570 273.070 L 223.979 265.473 220.573 268.836 C 205.202 284.015,178.443 286.132,159.937 273.635 C 157.519 272.002,154.566 269.274,146.567 261.284 C 138.702 253.426,136.255 251.161,136.101 251.598 C 135.392 253.613,134.100 256.442,133.130 258.101 C 132.509 259.165,132.000 260.142,132.000 260.271 C 132.000 260.401,134.615 263.119,137.812 266.312 C 141.008 269.504,143.714 272.477,143.825 272.917 C 144.658 276.240,136.849 283.921,128.500 287.991 C 118.473 292.879,112.224 291.817,104.667 283.941 L 101.833 280.988 98.186 281.661 C 88.044 283.531,76.499 281.031,67.090 274.928 C 63.130 272.359,44.618 254.427,40.797 249.457 C 35.783 242.937,32.415 234.305,31.165 224.767 C 30.548 220.060,30.417 149.166,31.016 144.325 C 33.977 120.409,47.547 105.879,70.333 102.224 C 72.572 101.865,82.409 102.042,85.177 102.491 M283.012 175.692 L 283.024 190.833 286.855 181.500 C 288.962 176.367,291.264 170.817,291.971 169.167 L 293.255 166.167 291.544 166.080 C 288.733 165.938,288.324 165.732,285.606 163.087 L 283.000 160.551 283.012 175.692 " stroke="none" fill="#070707" fill-rule="evenodd"></path><path id="path2" d="M69.500 104.194 C 48.226 107.479,34.800 122.958,32.659 146.667 C 31.904 155.022,32.409 222.421,33.260 226.833 C 38.283 252.899,58.885 268.416,82.655 264.037 C 87.591 263.128,87.319 263.084,88.622 265.005 C 92.441 270.634,96.433 272.833,102.833 272.833 L 107.500 272.833 111.081 271.105 C 118.672 267.441,126.333 260.610,126.333 257.506 C 126.333 257.216,125.039 256.154,123.417 255.112 C 116.968 250.970,114.116 248.985,113.089 247.926 L 112.012 246.814 113.770 244.477 C 117.164 239.966,119.619 233.722,121.036 226.000 C 122.647 217.217,122.341 148.215,120.654 139.937 C 115.537 114.830,94.739 100.298,69.500 104.194 M128.452 104.331 C 126.540 105.102,126.667 100.799,126.667 164.781 C 126.667 233.705,126.454 230.044,131.011 239.611 C 138.609 255.560,152.437 263.832,171.500 263.832 C 192.297 263.832,207.446 253.625,213.826 235.311 C 216.473 227.713,216.333 231.629,216.333 165.152 L 216.333 106.037 215.529 105.102 L 214.724 104.167 195.335 104.167 L 175.945 104.167 174.973 105.255 L 174.000 106.344 174.000 161.294 L 174.000 216.243 173.309 217.122 C 172.432 218.237,170.729 218.323,169.802 217.298 C 169.184 216.616,169.162 215.086,169.000 161.382 C 168.827 104.209,168.860 105.289,167.309 104.488 C 166.232 103.931,129.808 103.783,128.452 104.331 M224.434 104.399 C 222.551 105.309,222.667 100.162,222.669 183.384 C 222.671 264.669,222.606 261.662,224.369 263.145 L 225.384 264.000 244.187 264.000 L 262.989 264.000 264.078 263.027 L 265.167 262.055 265.254 184.444 C 265.348 100.328,265.460 105.298,263.453 104.459 C 262.052 103.873,225.638 103.817,224.434 104.399 M272.974 104.974 L 272.000 105.949 272.000 126.416 L 272.000 146.884 272.771 147.609 C 273.539 148.330,273.617 148.333,287.938 148.333 C 295.856 148.333,302.333 148.417,302.333 148.520 C 302.333 148.623,295.638 164.860,287.454 184.604 C 279.270 204.347,272.377 221.025,272.135 221.667 C 271.791 222.582,271.693 227.053,271.681 242.391 L 271.667 261.949 272.530 262.974 L 273.393 264.000 307.889 264.000 L 342.385 264.000 343.359 263.026 L 344.333 262.051 344.333 241.541 C 344.333 226.914,344.224 220.792,343.954 220.198 C 343.133 218.396,342.590 218.333,327.827 218.333 C 315.060 218.333,314.266 218.299,314.424 217.750 C 314.516 217.429,321.246 201.267,329.379 181.833 L 344.167 146.500 344.277 134.667 C 344.338 128.158,344.283 119.017,344.154 114.352 L 343.921 105.870 342.986 104.935 L 342.051 104.000 308.000 104.000 L 273.949 104.000 272.974 104.974 M85.961 106.495 C 105.890 110.402,118.017 125.410,119.660 148.202 C 120.091 154.176,120.092 216.708,119.661 221.167 C 118.799 230.089,115.852 238.690,112.008 243.500 C 108.757 247.568,109.363 248.506,119.312 254.799 C 124.758 258.243,124.648 257.967,121.775 261.013 C 110.089 273.400,97.259 274.488,90.167 263.693 C 88.465 261.103,88.353 261.082,82.075 262.143 C 59.331 265.990,39.984 251.369,35.255 226.761 L 34.500 222.833 34.500 184.667 C 34.500 139.506,34.482 139.731,38.935 129.403 C 46.388 112.114,65.970 102.576,85.961 106.495 M166.476 106.524 C 166.948 106.996,167.000 112.423,167.002 161.274 C 167.003 196.660,167.120 215.920,167.339 216.709 C 168.405 220.543,173.491 221.167,175.250 217.679 L 176.000 216.192 176.000 161.620 C 176.000 112.453,176.052 106.996,176.524 106.524 C 177.227 105.821,212.821 105.719,213.776 106.417 C 214.310 106.808,214.340 110.563,214.256 167.000 L 214.167 227.167 213.226 230.602 C 207.416 251.812,189.616 264.012,167.410 262.005 C 147.751 260.228,134.267 248.555,129.439 229.134 C 128.719 226.239,128.326 107.312,129.034 106.459 C 129.647 105.721,165.736 105.783,166.476 106.524 M262.689 106.345 C 263.723 106.898,263.701 260.632,262.667 261.667 C 262.017 262.317,261.556 262.333,244.152 262.333 L 226.303 262.333 225.485 261.515 L 224.667 260.697 224.667 183.993 C 224.667 131.757,224.777 107.084,225.012 106.645 C 225.412 105.897,261.317 105.611,262.689 106.345 M341.692 106.530 C 342.045 106.956,342.135 110.924,342.149 126.614 L 342.167 146.167 331.060 172.667 C 313.625 214.263,312.255 217.643,312.473 218.512 C 312.942 220.380,312.558 220.333,327.379 220.333 C 336.161 220.333,341.274 220.457,341.689 220.678 C 342.315 221.014,342.333 221.595,342.333 241.353 L 342.333 261.683 341.478 262.008 C 340.268 262.469,275.173 262.449,274.311 261.988 C 273.685 261.653,273.667 261.083,273.667 242.294 L 273.667 222.945 274.631 220.723 C 275.162 219.500,277.399 214.150,279.601 208.833 C 281.804 203.517,288.217 188.067,293.852 174.500 C 305.169 147.255,304.763 148.399,303.550 147.186 L 302.697 146.333 288.348 146.333 L 274.000 146.333 274.000 126.694 C 274.000 115.892,274.091 106.817,274.202 106.527 C 274.513 105.718,341.020 105.721,341.692 106.530 M75.335 147.576 C 74.627 147.935,73.843 148.754,73.335 149.667 L 72.500 151.167 72.552 184.352 C 72.610 221.035,72.504 219.282,74.730 220.677 C 76.950 222.068,79.791 220.790,80.619 218.028 C 81.372 215.514,81.124 151.471,80.354 149.776 C 79.306 147.469,77.289 146.584,75.335 147.576 M78.578 150.703 C 79.251 152.005,79.179 216.687,78.504 217.993 C 77.631 219.680,75.812 219.723,74.967 218.077 C 74.467 217.102,74.047 156.597,74.513 152.693 C 74.924 149.249,77.242 148.114,78.578 150.703 " stroke="none" fill="#d4dee5" fill-rule="evenodd"></path><path id="path3" d="M70.833 106.020 C 51.596 108.610,38.578 121.874,35.121 142.408 C 34.619 145.391,34.528 149.068,34.420 170.871 L 34.295 195.908 50.898 196.128 C 60.029 196.249,68.582 196.437,69.904 196.545 L 72.307 196.743 72.404 173.955 L 72.500 151.167 73.254 149.755 C 75.094 146.311,78.786 146.322,80.354 149.776 C 80.958 151.106,80.989 152.584,81.071 183.667 C 81.118 201.542,81.198 211.760,81.250 206.374 L 81.344 196.582 87.255 196.788 C 90.506 196.901,99.127 197.091,106.412 197.208 L 119.658 197.423 119.750 208.295 C 119.801 214.274,119.877 204.242,119.918 186.000 C 120.019 142.113,119.750 139.073,114.831 128.426 C 107.561 112.692,89.520 103.504,70.833 106.020 M129.067 106.400 C 128.759 106.707,128.667 117.331,128.667 152.189 L 128.667 197.578 140.750 197.793 C 147.396 197.911,156.021 198.100,159.917 198.214 L 167.000 198.421 167.000 152.735 C 167.000 111.645,166.947 106.995,166.476 106.524 C 165.788 105.835,129.751 105.716,129.067 106.400 M176.524 106.524 C 176.053 106.995,176.000 111.639,176.000 152.664 L 176.000 198.280 176.917 198.456 C 177.421 198.552,185.483 198.720,194.833 198.829 C 204.183 198.937,212.396 199.109,213.083 199.209 L 214.333 199.392 214.333 153.041 C 214.333 107.556,214.321 106.684,213.689 106.345 C 212.510 105.715,177.163 105.885,176.524 106.524 M225.012 106.645 C 224.776 107.085,224.693 131.626,224.748 184.061 C 224.793 226.286,224.869 246.977,224.917 230.041 L 225.003 199.248 230.252 199.454 C 233.138 199.567,241.762 199.756,249.417 199.874 L 263.333 200.089 263.333 153.390 C 263.333 107.560,263.321 106.684,262.689 106.345 C 261.317 105.611,225.412 105.897,225.012 106.645 M274.202 106.527 C 274.091 106.817,274.000 115.892,274.000 126.694 L 274.000 146.333 288.348 146.333 L 302.697 146.333 303.550 147.186 C 304.763 148.399,305.169 147.257,293.847 174.500 C 288.209 188.067,283.480 199.467,283.338 199.833 C 283.130 200.370,283.219 200.504,283.790 200.520 C 284.180 200.531,292.300 200.661,301.833 200.808 L 319.167 201.075 330.667 173.461 L 342.167 145.847 342.146 126.450 C 342.130 110.963,342.038 106.947,341.689 106.527 C 341.020 105.720,274.512 105.721,274.202 106.527 M72.479 208.167 C 72.479 213.117,72.525 215.188,72.582 212.770 C 72.639 210.352,72.639 206.302,72.583 203.770 C 72.526 201.238,72.479 203.217,72.479 208.167 M34.429 219.167 C 34.431 220.083,34.496 220.419,34.573 219.912 C 34.649 219.405,34.647 218.655,34.568 218.245 C 34.489 217.835,34.426 218.250,34.429 219.167 M321.106 220.583 C 324.922 220.637,331.072 220.636,334.772 220.583 C 338.473 220.529,335.350 220.485,327.833 220.486 C 320.317 220.486,317.289 220.530,321.106 220.583 M170.243 262.241 C 170.834 262.314,171.884 262.315,172.576 262.243 C 173.267 262.171,172.783 262.111,171.500 262.109 C 170.217 262.108,169.651 262.167,170.243 262.241 M235.060 262.250 C 239.951 262.302,248.051 262.302,253.060 262.250 C 258.069 262.198,254.067 262.155,244.167 262.155 C 234.267 262.155,230.169 262.198,235.060 262.250 M291.275 262.250 C 300.502 262.299,315.502 262.299,324.609 262.250 C 333.716 262.201,326.167 262.160,307.833 262.160 C 289.500 262.160,282.049 262.201,291.275 262.250 M75.755 262.906 C 76.261 262.982,77.011 262.980,77.421 262.901 C 77.831 262.822,77.417 262.760,76.500 262.762 C 75.583 262.765,75.248 262.829,75.755 262.906 M92.653 266.750 C 94.034 268.222,94.333 268.486,94.333 268.236 C 94.333 268.183,93.621 267.470,92.750 266.653 L 91.167 265.167 92.653 266.750 " stroke="none" fill="#f05344" fill-rule="evenodd"></path><path id="path4" d="M34.334 205.871 C 34.336 226.956,36.199 235.756,42.730 245.534 C 50.870 257.720,67.581 264.773,81.833 262.038 C 87.926 260.869,88.323 260.935,90.097 263.417 C 97.707 274.063,109.036 273.490,120.816 261.861 C 124.501 258.223,124.490 258.299,121.595 256.453 C 109.341 248.639,108.643 247.747,111.685 243.777 C 117.696 235.935,119.360 228.941,119.572 210.629 L 119.725 197.424 106.446 197.209 C 99.142 197.091,90.516 196.902,87.275 196.789 L 81.384 196.584 81.275 207.042 C 81.143 219.783,80.671 221.333,76.923 221.333 C 72.888 221.333,72.523 220.199,72.400 207.288 L 72.299 196.742 69.900 196.545 C 68.580 196.437,60.038 196.249,50.917 196.128 L 34.333 195.909 34.334 205.871 M128.756 211.705 C 128.921 227.088,129.041 228.236,131.149 234.490 C 143.656 271.599,200.399 271.134,212.102 233.827 C 214.022 227.706,214.081 227.127,214.241 212.784 L 214.391 199.402 213.112 199.214 C 212.409 199.111,204.183 198.937,194.833 198.829 C 185.483 198.720,177.421 198.552,176.917 198.456 L 176.000 198.280 176.000 207.490 C 176.000 218.919,175.611 220.000,171.500 220.000 C 167.424 220.000,167.000 218.811,167.000 207.388 L 167.000 198.421 159.917 198.214 C 156.021 198.100,147.382 197.910,140.719 197.792 L 128.605 197.577 128.756 211.705 M225.000 230.072 C 225.000 259.511,225.027 260.921,225.610 261.448 C 226.161 261.947,227.940 262.000,244.257 262.000 L 262.296 262.000 262.814 261.259 C 263.275 260.602,263.333 257.111,263.333 230.304 L 263.333 200.089 249.417 199.874 C 241.762 199.756,233.137 199.567,230.250 199.454 L 225.000 199.248 225.000 230.072 M282.955 201.167 C 280.146 207.685,274.215 222.124,273.986 223.000 C 273.502 224.859,273.578 261.111,274.067 261.600 C 274.647 262.180,341.353 262.180,341.933 261.600 C 342.392 261.141,342.520 221.811,342.065 221.094 C 341.871 220.788,338.354 220.665,327.772 220.594 C 309.442 220.471,310.504 221.475,315.644 209.122 L 318.955 201.167 307.394 200.939 C 281.782 200.433,283.277 200.419,282.955 201.167 " stroke="none" fill="#e41824" fill-rule="evenodd"></path></g></svg>